<?xml version="1.0" encoding="UTF-8"?>
<svg id="Layer_2" data-name="Layer 2" xmlns="http://www.w3.org/2000/svg" viewBox="0 0 322.11 299.22">
  <defs>
    <style>
      .cls-1 {
        fill: none;
        stroke: #f0e2c6;
        stroke-miterlimit: 10;
      }
    </style>
  </defs>
  <g id="Layer_1" data-name="Layer 1">
    <g>
      <g>
        <path class="cls-1" d="M207.6,183.65c17.7-5.77,34.74-12.74,51.43-20.82"/>
        <path class="cls-1" d="M191.44,11.59c-53.34,1.51-116.09,19.46-160.92,46.85-9.64,1.94-16.73,7.92-21.42,17.03-3.79,7.37-12.21,21.57-6.88,63.83,3.84,30.47,22.55,51.61,38.99,61.69,13.8,8.45,22.08,1.65,22.08,1.65,42.91,1.43,80.8-2.45,115.76-10.89"/>
        <path class="cls-1" d="M154.57,49.73c-15.74-.4-29.28-.44-49.78.8-21.65,1.31-59.15,5.94-79.12,14.41.5,1.34.26,2.93-.62,4.07s-2.36,1.77-3.78,1.62c-3.86,7.01-7.37,13.83-10.19,21.12-1.06,2.75-.14,5.76,1.99,7.8.11.11.22.22.32.34,1.1,1.37,1.11,3.5.02,4.88-.51.65-1.25,1.11-2.05,1.33-1.58.43-2.63,1.93-2.56,3.57.56,13.43,2.04,26.88,6.49,39.51.43,1.22,1.6,1.95,2.89,2.03,1.04.06,2.07.48,2.83,1.19,1.26,1.19,1.72,3.16,1.12,4.79-.2.53-.51,1.02-.89,1.44-1.35,1.46-1.59,3.62-.49,5.27,4.47,6.71,8.61,13.55,13.13,20.25.88,1.31,2.45,2.05,4.01,1.81.91-.14,1.84-.07,2.69.28,1.58.65,2.73,2.39,2.42,4.07-.11.58-.41,1.12-.83,1.54-.95.95-.76,2.56.34,3.33,5.83,4.07,12.78,6.87,19.75,7.52"/>
        <path class="cls-1" d="M183.34,50.53c-5.09-.12-9.76-.25-14.13-.38"/>
        <path class="cls-1" d="M13.42,100.18C60.06,67.37,126.45,35.59,191.96,17.54"/>
        <path class="cls-1" d="M175.55,106.84c3.41.2,10.06.78,13.47,1"/>
        <path class="cls-1" d="M13.38,103.42c43.98-.56,87.98.13,131.92,2.07"/>
        <path class="cls-1" d="M170.71,61.46c4.29-2.91,8.56-5.84,12.82-8.79"/>
        <path class="cls-1" d="M21.09,152.64c45.87-24.94,90.65-51.9,134.14-80.78"/>
        <path class="cls-1" d="M196.47,152.31c3.99-.61,7.97-1.26,11.94-1.95"/>
        <path class="cls-1" d="M21.4,157.23c52.18,5.07,104.92,4.26,156.92-2.37"/>
        <path class="cls-1" d="M42.15,188.56c36.11-9.88,69.25-28.19,101.99-46.34,16.25-9,32.69-18.15,46.2-30.89"/>
        <path class="cls-1" d="M202.84,163.61c2.86-2.16,5.6-4.46,8.22-6.93"/>
        <path class="cls-1" d="M41.85,190.29c35.39,6.95,72.3,6.01,107.29-2.74,8.13-2.03,16.22-4.53,24.04-7.63"/>
        <path class="cls-1" d="M211.1,10.96c-2.76.16-5.42-.86-7.5-2.68-.25-.22-.53-.42-.81-.58-2.57-1.47-6.01-1.3-8.39.46s-3.57,5.01-2.84,7.88,3.35,5.17,6.29,5.5c1.89.21,3.84-.42,5.32-1.6,1.94-1.55,4.27-2.53,6.76-2.5,2.31.02,4.63.07,6.88-.03,1.03-.05,2.07-.1,3.03-.48s1.82-1.14,2.04-2.14c.3-1.37-.7-2.75-1.96-3.36s-2.71-.63-4.11-.63c-1.63,0-3.18.07-4.71.16Z"/>
        <path class="cls-1" d="M203.4,48.69c-2.76.1-5.4-.99-7.43-2.86-.25-.23-.52-.43-.79-.6-2.53-1.53-5.97-1.44-8.4.27s-3.68,4.93-3.02,7.82c.66,2.89,3.22,5.25,6.16,5.65,1.89.25,3.85-.32,5.36-1.47,1.98-1.5,4.33-2.43,6.81-2.34,2.31.08,4.63.18,6.88.13,1.03-.03,2.07-.05,3.04-.41s1.85-1.1,2.09-2.09c.33-1.36-.64-2.76-1.88-3.4s-2.7-.69-4.09-.73c-1.63-.05-3.18,0-4.72.05Z"/>
        <path class="cls-1" d="M208.42,100.44c-2.64.84-5.46.51-7.93-.75-.3-.15-.61-.27-.93-.36-2.86-.79-6.14.23-8.01,2.52s-2.22,5.74-.8,8.34,4.52,4.19,7.45,3.77c1.89-.26,3.62-1.35,4.76-2.87,1.5-1.98,3.52-3.51,5.93-4.09,2.24-.55,4.5-1.07,6.66-1.73.98-.3,1.98-.61,2.81-1.21s1.48-1.55,1.45-2.58c-.05-1.4-1.36-2.49-2.73-2.77s-2.78.06-4.14.4c-1.59.4-3.07.85-4.53,1.32Z"/>
        <path class="cls-1" d="M226.15,142.44c-2.52,1.15-5.36,1.15-7.96.2-.32-.12-.64-.2-.96-.25-2.93-.45-6.07.96-7.66,3.46-1.59,2.5-1.52,5.96.2,8.38,1.72,2.42,4.99,3.62,7.85,2.86,1.84-.49,3.43-1.77,4.39-3.41,1.25-2.14,3.08-3.9,5.4-4.77,2.16-.81,4.34-1.6,6.41-2.51.94-.42,1.9-.84,2.65-1.54s1.29-1.72,1.13-2.73c-.21-1.38-1.65-2.31-3.04-2.42s-2.76.39-4.06.89c-1.53.58-2.94,1.21-4.34,1.85Z"/>
        <path class="cls-1" d="M209.69,48.72c.54-5.89,1.5-11.75,2.9-17.54,1.14-4.7,2.62-9.43,4.72-13.8"/>
        <path class="cls-1" d="M214.5,98.77c-3.94-14.21-5.83-28.91-5.24-43.5"/>
        <path class="cls-1" d="M232.03,139.33c-6.49-10.77-11.79-22.33-15.66-34.31"/>
        <path class="cls-1" d="M220.5,11.78c1.64-2.41,3.54-4.63,5.77-6.56,7.52-6.5,22.44-7.92,36.92,6.36,36.79,36.29,36.66,114.5,24.05,135.44-5.49,9.12-10.64,15.76-21.25,16.54-13.97,1.02-27.48-14.13-30.64-18.96-.11-.17-.22-.34-.33-.51"/>
        <path class="cls-1" d="M263.18,11.59c-10.94-7.99-19.96-15.23-31.94,0s-10.88,48.15-4.99,79.63c4.99,26.71,20.61,62.72,41.69,65.46,14.98,1.94,22.29-12.71,24.04-22.62"/>
        <path class="cls-1" d="M257.84,53.87c4.51-.93,10.63,8.99,13.03,22.12,2.53,13.85,1.25,27.99-5.37,28.07-4.42.05-11.55-6.88-13.49-22.99s-1.2-25.75,5.84-27.2Z"/>
      </g>
      <path class="cls-1" d="M217.62,157.09c4.92,7.07,7.16,19.26,4.72,27.51"/>
      <path class="cls-1" d="M228.97,195.21c-.45-.34-.47-1.01-.1-1.44,1.58-1.84,1.75-4.84.44-6.95-1.55-2.49-4.7-3.71-7.63-3.45-1.82.16-3.63.85-4.96,2.11s-2.12,3.12-1.92,4.94c.15,1.36.92,2.66,2.03,3.44.47.33.59.95.25,1.42-.71.98-.99,2.52-.77,3.6.3,1.49,1.46,2.71,2.85,3.32s2.96.69,4.46.5c1.99-.26,3.97-1,5.25-2.66.65-.85,1.01-1.91.97-2.98-.03-.85-.31-1.43-.87-1.86Z"/>
      <path class="cls-1" d="M218.66,202.71c-1.82,1.32-2.99,3.39-3.64,5.54s-.83,4.41-1,6.65c-.43,5.55-.86,11.1-1.3,16.64-.15,1.93,2.05,3.14,4.09,3.12.83,0,1.58.42,1.99,1.15.66,1.17,1.73,2.11,3.02,2.45,1.36.36,2.86.09,4.05-.66.58-.37,1.32-.45,1.94-.16,1.35.63,3,.58,4.37-.09,1.21-.59,2.12-1.71,2.53-2.98.29-.89,1.09-1.46,2.03-1.53.99-.08,1.96-.43,2.82-1,1.09-.73,1.91-1.84,2.3-3.09.18-.58.06-1.22-.26-1.74-2.54-4.13-3.81-8.92-5.44-13.5-1.73-4.86-3.99-9.77-8.03-12.98"/>
      <path class="cls-1" d="M220.92,212.19c-.23,6.07-1.87,17.55-2.11,23.62"/>
      <path class="cls-1" d="M227.8,212.19c1.66,7.1,4.03,14.03,7.07,20.65"/>
      <path class="cls-1" d="M157,68.48c-.24-.1-.48-.22-.71-.34-1.6-.87-2.91-2.42-3.14-4.23-.16-1.29.56-2.83,1.62-3.79.5-.45.5-1.26.01-1.71-1.95-1.81-2.38-5.21-.98-7.59,1.68-2.88,5.26-4.24,8.58-4.07,3.4.18,6.88,1.97,8.29,5.08,1.18,2.59.43,6-1.72,7.71-.5.39-.66,1.09-.27,1.59.71.93.93,2.44.77,3.6-.23,1.65-1.49,3.04-2.99,3.77s-3.22.89-4.89.85c-1.32-.03-3.05-.8-4.28-.65-1,.13-1.91,1.16-2.54,1.89-1.71,1.99-2.61,4.57-3.37,7.03-2.64,8.49-4.62,17.17-6.6,25.84-.69,3.04,4.05,4.67,7.04,3.76,1.88,3.12,6.46,4.34,9.61,2.49,1.71,1.17,3.91,1.51,5.93,1.06s3.84-1.77,4.9-3.56c1.7.4,3.53-.19,4.82-1.37s1.94-3.02,1.68-4.75c-.85-5.74-3.44-11.05-5-16.65-1.56-5.59-3.73-11.22-7.82-15.34"/>
      <path class="cls-1" d="M167.59,88.68c1.95,9.08,1.43,10.96,3.78,19.72"/>
      <path class="cls-1" d="M151.82,107.22c1.98-6.56,2.45-6.43,3.41-13.21"/>
      <path class="cls-1" d="M162.29,46.91c1.22-7.75,3.67-15.3,7.23-22.29,2.38-4.66,3.59-9.14,6.51-13.48,2.92-4.34,7.26-7.98,12.41-8.88,4.52-.79,9.37.7,12.67,3.89"/>
      <path class="cls-1" d="M201.1,5.77c10.94-1.62,24.76-3.46,35.7-5.08"/>
      <path class="cls-1" d="M180.18,141.81c.37-.31.22-.89-.25-1-1.55-.37-2.92-1.59-3.48-3.11-.76-2.08-.12-4.51,1.31-6.19s3.56-2.68,5.73-3.06c2.51-.44,5.24-.08,7.32,1.39s3.36,4.17,2.79,6.65c-.4,1.71-1.78,3.15-3.42,3.69-.48.16-.5.83-.05,1.05.79.39,1.55.85,2.09,1.34,1.07.97,1.77,2.48,1.4,3.88-.48,1.85-2.51,2.8-4.36,3.31-2.02.55-4.11.87-6.2.95-1.1.04-2.24,0-3.22-.49-1.68-.84-2.51-2.94-2.13-4.77.27-1.3,1.28-2.68,2.46-3.65Z"/>
      <path class="cls-1" d="M183.74,150.73c-1.47-.01-3.66,1.21-4.51,2.42s-1.27,2.64-1.66,4.05c-2.38,8.57-3.97,17.36-4.75,26.22-.17,1.91,2.56,2.93,4.47,2.66-.09,2.92,1.31,5.89,3.78,7.46s5.75,1.74,8.36.43c2.48.86,5.37.77,7.79-.27s4.41-3.02,5.48-5.43c1.88-.71,3.6-1.9,4.51-3.69s1.14-3.93.62-5.87c-2.29-8.52-5.52-16.81-10.27-24.24-.39-.62-.8-1.24-1.25-1.82-.05-.06-.09-.12-.14-.18-.59-.74-1.26-1.42-2.04-1.94-1.46-.97-3.43-1.01-6.32-.4"/>
      <path class="cls-1" d="M182.17,162.41c-.62,5.87-3.39,19.66-4.76,25.4"/>
      <path class="cls-1" d="M192.58,161.69c1.16,10.95,6.64,24.15,9.19,26.21"/>
      <path class="cls-1" d="M189.18,194.09c-.74-10.55-1.23-21.12-1.47-31.69"/>
      <path class="cls-1" d="M282.68,152.2c18.24,1.02,33.96,16.35,37.85,34.2,3.88,17.85-2.96,37.04-15.46,50.35-12.5,13.32-30.03,21.16-48,24.46-17.96,3.29-36.45,2.33-54.58.11-18.13-2.22-36.1-5.68-54.29-7.36-25.36-2.35-51.03-1.22-76.09,3.34-12.08,2.2-24.44,5.2-36.48,2.8s-23.71-12.19-23.46-24.47c.15-7.31,5.49-13.82,12.09-16.98s14.23-3.45,21.5-2.64c29.35,3.26,54.01,22.69,76.92,41.32,22.91,18.63,47.63,38.01,77,41.13,4.39.47,9.06.5,12.95-1.6s6.59-6.95,4.93-11.05c-1.5-3.71-5.79-5.43-9.74-6.09-8.44-1.41-17.36.28-24.69,4.68"/>
    </g>
  </g>
</svg>