<?xml version="1.0" encoding="UTF-8"?>
<svg id="Layer_2" data-name="Layer 2" xmlns="http://www.w3.org/2000/svg" viewBox="0 0 293.51 350.37">
  <defs>
    <style>
      .cls-1 {
        fill: none;
        stroke: #f0e2c6;
        stroke-miterlimit: 10;
      }
    </style>
  </defs>
  <g id="Layer_1" data-name="Layer 1">
    <g>
      <path class="cls-1" d="M84.94,153.74c-4.92,14.15-2.43,29.78,1.54,44.23s9.38,28.7,10.25,43.66c.71,12.22-2.66,26.01-13.14,32.33-10.16,6.13-23.91,2.9-33.01-4.71-9.1-7.62-14.46-18.71-18.99-29.68s-8.58-22.37-15.9-31.71c11.93.2,24.17.46,35.26,4.87,16.57,6.59,28.91,22.75,30.9,40.47"/>
      <path class="cls-1" d="M38.09,224.94c10.58,13.46,24.17,24.54,39.48,32.2,8.86,4.43,18.63,7.99,25.06,15.52,4.52,5.3,6.94,12.15,7.83,19.05s.34,13.92-.52,20.83c-1.35,10.95-7.16,21.29-15.82,28.14-8.65,6.85-20.05,10.14-31.02,8.95-4.15-.45-8.5-1.67-11.25-4.81-3.76-4.3-3.31-11.21-.05-15.91,3.25-4.7,8.69-7.46,14.21-8.92,12.97-3.45,27.51-.43,38.03,7.91,7.62,6.04,14.03,15.04,23.68,16.15,5.89.68,12.06-2.15,15.39-7.06s3.67-11.68.86-16.91"/>
      <path class="cls-1" d="M180.84,184.36c-12.37-3.27-26.04,1.5-35.13,10.49-9.09,8.99-13.93,21.67-15.22,34.4-1.29,12.73.73,25.57,3.78,38-.77-8.6,4.61-17.53,12.53-21,7.47-3.27,16.16-1.88,23.89.7s15.13,6.33,23.16,7.75c-2.74,3.99-6.72,6.63-9.46,10.62-3.77,5.48-7.66,11.09-13.16,14.83-8.94,6.07-21.62,5.82-30.47-.28"/>
      <path class="cls-1" d="M174.5,260.4c-15-1.75-29.98,8.73-35.25,22.88-5.27,14.15-1.53,30.77,7.8,42.64s23.61,19.24,38.44,22.1c14.83,2.86,30.2,1.51,44.95-1.72,12.67-2.77,25.14-6.97,36.21-13.73s20.7-16.21,26.43-27.84"/>
      <path class="cls-1" d="M62.73,67.37c-9.72-.51-18.14-7.57-22.94-16.04-4.8-8.47-6.63-18.25-8.38-27.83,6.35,3.61,14.03,4.71,21,6.9s14.03,5.15,18.82,10.66,6.66,14.16,2.56,20.21"/>
      <path class="cls-1" d="M93.41,55.96c-5.45.3-10.48-3.72-12.67-8.72s-1.98-10.74-.89-16.09c2.2-10.76,7.71-20.51,13.14-30.06,2.48,5.4,6.03,9.85,9.26,14.83s6.25,10.21,7.69,15.98,1.12,12.18-2.02,17.22-8.57,6.51-14.5,6.84Z"/>
      <path class="cls-1" d="M112.91,59.46c-3.96-.18-7.5-3.08-9.06-6.73s-1.33-7.88-.02-11.63,3.61-7.06,6.14-10.11c6.66-8.02,14.96-14.49,23.2-20.89,2.1,6.87,3.49,13.61,3.93,20.79.44,7.17-.96,14.7-5.28,20.43s-11.73,8.47-18.91,8.14Z"/>
      <path class="cls-1" d="M121.99,58.07c-.86-6.45,2.85-12.88,8.05-16.8s11.68-5.71,18.08-6.91,12.93-1.87,19.12-3.91c-1.3,9.01-2.28,18.84-7.29,26.44s-14.68,12.95-23.31,10.04"/>
      <path class="cls-1" d="M136.36,72.81c.23-5.58,3.13-10.82,7.79-13.91,5.73-3.8,12.92-4.69,19.8-4.74s13.66.63,20.38-.39c.25-.04.44.22.32.44-3.25,6.07-7.36,12.15-12.04,17.14-5.3,5.65-12.38,9.25-20.05,10.37s-16.61,1.05-16.2-8.91Z"/>
      <path class="cls-1" d="M139.84,86.48c-.25-5.92,4.35-11.25,9.86-13.45s11.69-1.86,17.54-.89c8.92,1.48,17.54,4.33,26.12,7.17-6.96,7.18-15.65,12.16-25.02,15.66-5.48,2.04-11.49,3.38-17.15,1.94s-11.09-4.59-11.34-10.43Z"/>
      <path class="cls-1" d="M175.94,91.46c6.13,2.39,12.27,4.78,18.4,7.16-4.46,6.42-11.61,10.92-18.86,13.83s-15.37,3.64-23.02,2.07c-3.31-.68-6.61-1.81-9.28-3.89s-4.67-5.2-4.81-8.58,1.86-6.9,5.06-8.01"/>
      <path class="cls-1" d="M169.37,114.42l13.57,13.81c-13.27,7.75-31.79,5.17-43.67-4.58-2.57-2.11-4.95-4.73-5.63-7.98s.93-7.15,4.13-8.04"/>
      <path class="cls-1" d="M149.88,113.64c3.26,1.3,4.94,4.86,6.12,8.17,3.07,8.58,4.88,17.54,6.68,26.47-8.75.21-17.37-2.88-24.52-7.92"/>
      <path class="cls-1" d="M118.66,118.61c6.58-.74,13.11,3.31,16.51,8.99s4.04,12.68,3.09,19.23c-.96,6.55-3.39,12.78-5.81,18.95-7.72-5.79-14.41-12.15-21.32-18.9"/>
      <path class="cls-1" d="M60.18,32.73c.54-9,1.07-18.01,1.61-27.01,7.12,6.44,13.13,13.74,19.2,21.18"/>
      <path class="cls-1" d="M36.59,44.87l-30.02-1.31c4.3,7.61,9.38,15.3,15.19,21.82,5.81,6.53,13.28,11.91,21.84,13.68,3.64.75,7.56.81,10.96-.7s6.15-4.82,6.22-8.54"/>
      <path class="cls-1" d="M55.45,91.48c-1-6.95-7.64-12.08-14.56-13.25s-13.99.87-20.46,3.6c-6.47,2.73-12.68,6.17-19.44,8.03,5.88,5.58,11.65,11.13,18.78,14.97,7.13,3.85,15.68,5.75,23.42,3.37s13.42-8.71,12.26-16.73Z"/>
      <path class="cls-1" d="M55.78,100.51c5.41,1.82,7.76,8.88,5.75,14.23s-7.24,8.93-12.72,10.56-11.27,1.66-16.98,1.98-11.14.94-16.01,3.46c-.2.1-.43-.08-.36-.3,2.67-7.91,6.31-16.32,11.27-22.99"/>
      <path class="cls-1" d="M62.9,112.8c5.68-1.68,11.93,2.83,13.42,8.57,1.49,5.73-.95,11.93-4.94,16.31s-9.34,7.24-14.67,9.82-10.83,4.98-15.44,8.7c1.74-10.08,3.36-20.43,5.1-30.51"/>
      <path class="cls-1" d="M88.89,123.13c-6.25-4.34-15.34-2.92-21.11,2.04s-8.56,12.69-9.1,20.28c-.54,7.59.92,15.16,2.37,22.63,9.03-4.35,16.68-12.03,21.95-20.55"/>
      <path class="cls-1" d="M97.4,122.45c-7-1.22-13.75,4.76-15.47,11.65-1.72,6.89.46,14.18,3.6,20.55,3.14,6.37,7.27,12.27,9.82,18.9,1.77-5.29,5.5-9.8,8.69-14.38s6.41-9.23,8.2-14.5,1.98-11.36-.78-16.2-8.84-7.97-14.06-6.01Z"/>
      <path class="cls-1" d="M60.98,69.61c3.78-7.12,12.43-10.03,20.39-11.3,11.18-1.78,22.91-1.54,33.47,2.54s19.81,12.37,23.36,23.12.53,23.81-8.47,30.68c-6.88,5.25-15.94,6.39-24.54,7.35-10.18,1.14-21.13-.02-30.34-4.5s-16.73-12.8-19.18-22.74.5-16.11,5.31-25.15Z"/>
      <path class="cls-1" d="M206.25,194.62c-2.83-5.5-4.17-11.95-2.76-17.98s5.88-11.48,11.83-13.18c8.3-2.37,17.05,2.85,22.43,9.59,4,5.01,6.86,11.11,7.14,17.52.28,6.41-2.3,13.08-7.43,16.93-12.45,9.35-25.6-1.98-31.22-12.88Z"/>
      <path class="cls-1" d="M213.51,206.56c-3.89,4.28-5.71,10.37-4.8,16.08,1.27,7.99,7.39,14.57,8.68,22.55,2.91-3.05,5.33-6.76,7.58-10.32s3.79-7.7,3.63-11.91c-.18-4.66-2.45-9.08-5.64-12.49"/>
      <path class="cls-1" d="M225.27,211.33c-3.48,2.96-4.29,8.21-3.06,12.61s4.12,8.13,7.13,11.57,6.23,6.78,8.33,10.84c2.92-6.17,4.88-13.15,5.35-19.96"/>
      <path class="cls-1" d="M237.47,207.51c-2.77,3.36-1.34,8.84.63,12.72s5.59,6.7,9.47,8.69,8.06,3.28,12.1,4.92c.32-4.74.46-9.71-.15-14.42s-2.23-9.42-5.36-13-7.93-5.88-12.64-5.27"/>
      <path class="cls-1" d="M257.96,213.01c6.33.91,12.76,1.08,19.13.51-1.76-4.65-3.96-9.3-6.67-13.47s-6.45-7.85-11.11-9.58-10.32-1.25-14.09,1.99"/>
      <path class="cls-1" d="M245.9,191.86c3.88,4.72,11.16,5.4,16.85,3.17s10.12-6.77,14.23-11.29c-6.4-2.79-10.72-5.69-17.62-6.77-4.72-.74-12.3.41-16.27,3.08"/>
      <path class="cls-1" d="M243.17,178.33c9.52-3.99,16.89-12.75,19.18-22.82-5.21-1.73-10.95-.96-15.88,1.46s-8.84,6.82-10.66,11.99"/>
      <path class="cls-1" d="M244.57,157.89c1.62-8.67,1.31-17.7-.9-26.24-5.74,2.71-10.09,7.5-13.05,13.12s-4.02,12.21-2.99,18.48"/>
      <path class="cls-1" d="M210.42,165.42c2.85-3.62,3.34-8.75,1.94-13.14s-4.5-8.09-8.13-10.92-7.8-4.89-11.97-6.85c.1,4.82-.48,9.48-.41,14.3s1.02,9.84,3.96,13.65,10.11,4.72,14.6,2.96Z"/>
      <path class="cls-1" d="M203.67,187.76c-2.29-5.78-8.79-5.81-13.14-5.78s-8.52,1.95-11.92,4.66-6.1,6.18-8.6,9.74c4.15,2.46,8.21,4.25,12.82,5.68s9.75,1.69,14.17-.24,7.91-6.38,7.79-11.2"/>
      <path class="cls-1" d="M257.88,165.54c4.57-.3,9.18-.05,13.7.74-2.1,4.15-4.14,8.32-6.24,12.46"/>
      <path class="cls-1" d="M221.82,162.87c-2.82.02-5.42-1.87-6.8-4.33s-1.69-5.39-1.45-8.2c.69-8.42,5.78-15.75,10.69-22.63,3.79,4.39,5.76,10.07,6.68,15.79"/>
      <path class="cls-1" d="M216.6,161.05c3.28-1.4,4.78-5.44,4.32-8.98s-2.45-6.67-4.48-9.61c-3.62-5.24-7.54-10.28-11.73-15.07-.63,4.03-.91,7.93-1.53,11.96"/>
      <path class="cls-1" d="M190.51,150.61c-4.22-1.12-8.49-2.05-12.8-2.79,1.39,7.35,3.97,14.31,7.97,20.63,2.28,3.6,5.4,7.22,9.63,7.7,4.59.52,9.14-3.63,9.03-8.25"/>
      <path class="cls-1" d="M181.04,183.27c-5.41-2.89-10.23-6.88-14.07-11.66,4.53-4.04,10.59-6.11,16.62-6.84"/>
      <path class="cls-1" d="M184.61,201.88l-6.98,12.69c4.85.78,9.95,1.33,14.83.73s9.78-2.8,12.54-6.86,2.75-10.15-.85-13.5"/>
      <path class="cls-1" d="M195.53,214.47c-.22,6.82-.44,13.63-.66,20.45,5.15-1.87,9.92-4.63,14.65-7.41"/>
    </g>
  </g>
</svg>