<?xml version="1.0" encoding="UTF-8"?>
<svg id="Layer_2" data-name="Layer 2" xmlns="http://www.w3.org/2000/svg" viewBox="0 0 255.71 456.3">
  <defs>
    <style>
      .cls-1 {
        fill: none;
        stroke: #f0e2c6;
        stroke-miterlimit: 10;
      }
    </style>
  </defs>
  <g id="Layer_1" data-name="Layer 1">
    <g>
      <line class="cls-1" x1="38.84" y1="181.26" x2="38.84" y2="199.3"/>
      <line class="cls-1" x1="38.84" y1="156.67" x2="38.84" y2="169.67"/>
      <line class="cls-1" x1="38.84" y1="60.71" x2="38.84" y2="145.08"/>
      <line class="cls-1" x1="130.02" y1="112.3" x2="130.02" y2="130.01"/>
      <line class="cls-1" x1="130.02" y1="86.73" x2="130.02" y2="100.71"/>
      <line class="cls-1" x1="130.02" x2="130.02" y2="75.14"/>
      <circle class="cls-1" cx="38.84" cy="150.88" r="5.8"/>
      <circle class="cls-1" cx="38.84" cy="175.47" r="5.8"/>
      <circle class="cls-1" cx="38.84" cy="205.1" r="5.8"/>
      <circle class="cls-1" cx="130.02" cy="137.55" r="7.54"/>
      <circle class="cls-1" cx="130.02" cy="106.5" r="5.8"/>
      <circle class="cls-1" cx="130.02" cy="80.94" r="5.8"/>
      <path class="cls-1" d="M41.86,208.97c1.65,5.47,6.24,9.48,10.8,12.91s9.48,6.75,12.36,11.68c4.21,7.23,2.77,17.27-3.3,23.02"/>
      <path class="cls-1" d="M35.77,210.15c-3.52,9.67-15.25,13.86-20.32,22.81-4.22,7.43-2.67,17.66,3.55,23.51"/>
      <path class="cls-1" d="M13.71,267.5c-2.09-.57-4.09-3.75-3.64-5.87s2.16-3.8,4.11-4.73,4.14-1.23,6.29-1.49c11.72-1.39,23.61-1.82,35.34-.47,2.57.3,5.19.69,7.51,1.84s4.34,3.18,4.86,5.71-.88,4.66-3.35,5.45l-51.12-.45Z"/>
      <path class="cls-1" d="M104.78,196.39c-7.23-6.3-8.91-18.06-3.73-26.14,3.27-5.1,8.6-8.43,13.55-11.92s9.91-7.65,11.77-13.42"/>
      <path class="cls-1" d="M132.23,144.44c1.19,4.76,4.82,8.52,8.7,11.53s8.15,5.56,11.52,9.12c7.65,8.1,9.25,21.29,3.76,30.99"/>
      <path class="cls-1" d="M129.39,145.56c2.87,5.03,1.67,11.42-.62,16.75s-5.59,10.27-6.92,15.91-.02,12.52,4.99,15.43"/>
      <path class="cls-1" d="M38.88,210.8c1.73,3.52.71,7.8-1.08,11.29s-4.31,6.6-5.77,10.24c-2.96,7.37-.86,16.48,5.04,21.8"/>
      <path class="cls-1" d="M157.67,209.54c1.91-.95,3.34-2.82,3.77-4.92s-.17-4.37-1.55-5.99c-1.37-1.6-3.4-2.52-5.46-2.92s-4.19-.34-6.29-.28c-6.82.21-13.65.41-20.47.62-5.78-.29-11.69-.48-17.47-.23-2.46.11-5.03.35-7.1,1.68-2.11,1.36-3.46,3.84-3.46,6.35s1.35,4.99,3.47,6.35l54.58-.67Z"/>
      <polyline class="cls-1" points="13.71 267.5 1.52 283.24 1.52 376.17 24.42 381.04 59.86 381.04 77.92 376.41 77.92 283.24 64.83 267.95"/>
      <polyline class="cls-1" points="4.12 376.72 19.2 389.98 64.54 389.98 77.92 376.41"/>
      <line class="cls-1" x1="30.7" y1="389.98" x2="24.42" y2="381.04"/>
      <line class="cls-1" x1="59.86" y1="381.04" x2="51.46" y2="389.98"/>
      <rect class="cls-1" x="14.47" y="389.98" width="53.49" height="5.67" rx="2.83" ry="2.83"/>
      <path class="cls-1" d="M19.35,396.29c-1.1,2.8.17,6.07,2.24,8.25s4.83,3.56,7.43,5.07c2.36,1.37,4.21,2.98,6.03,5.25.33.41.4.99.17,1.45-1.11,2.17-1.54,4.73-.91,7.07.7,2.6,2.5,4.89,4.86,6.19,3.27-.5,6.02-2.72,6.81-5.93.71-2.87.53-6.6-1.41-8.77-.36-.4-.3-1.03.16-1.33,2.15-1.41,3.76-2.11,6.36-3.25,2.95-1.3,5.91-2.72,8.3-4.89s4.18-5.19,4.17-8.42"/>
      <path class="cls-1" d="M5.2,311.71v59.81c4.97,0,9.87.59,14.81,1.11v-.05s0-61,0-61c1.18-1.68,1.25-3.71.76-5.7s-1.89-3.74-3.71-4.67c1.57-4.47-2.22-8.64-4.88-11.81-2.45,3.58-5.54,7.77-3.39,12.16-3.93,2.12-5.71,6.21-3.59,10.15Z"/>
      <path class="cls-1" d="M75.39,311.71v59.81c-4.01,0-7.97.59-11.96,1.11v-.05s0-61,0-61c-.95-1.68-1.01-3.71-.61-5.7s1.52-3.74,3-4.67c-1.27-4.47,1.79-8.64,3.95-11.81,1.98,3.58,4.47,7.77,2.74,12.16,3.18,2.12,4.61,6.21,2.9,10.15Z"/>
      <path class="cls-1" d="M27.94,373.34v-59.4c-2.1-2-3.06-5.12-2.44-7.95s3.03-5.08,5.77-6.01c-1.26-2.15-.52-4.99.98-6.99s3.61-3.42,5.47-5.09,3.65-3.75,3.79-6.24c-.13,2.38,1.53,4.5,3.37,6.02s3.99,2.7,5.52,4.54c1.75,2.1,2.58,4.82,2.13,7.51,2.41.94,4.37,2.95,5.27,5.37s.6,5.25-.61,7.53v60.85l-29.26-.14Z"/>
      <path class="cls-1" d="M91.46,256.01v66.37c5.51,0,10.96.66,16.44,1.23v-.05s0-67.69,0-67.69c1.31-1.86,1.39-4.12.84-6.33s-2.09-4.15-4.12-5.18c1.75-4.96-2.46-9.59-5.42-13.1-2.71,3.97-6.15,8.62-3.76,13.49-4.36,2.35-6.33,6.89-3.99,11.26Z"/>
      <path class="cls-1" d="M169.36,256.01v66.37c-4.45,0-8.85.66-13.28,1.23v-.05s0-67.69,0-67.69c-1.06-1.86-1.12-4.12-.68-6.33s1.69-4.15,3.33-5.18c-1.41-4.96,1.99-9.59,4.38-13.1,2.19,3.97,4.96,8.62,3.04,13.49,3.52,2.35,5.11,6.89,3.22,11.26Z"/>
      <path class="cls-1" d="M116.69,324.4v-65.92c-2.33-2.22-3.39-5.68-2.7-8.82s3.36-5.64,6.41-6.66c-1.4-2.39-.57-5.54,1.09-7.76s4.01-3.8,6.07-5.65,4.05-4.16,4.21-6.93c-.14,2.65,1.69,5,3.74,6.68s4.43,3,6.13,5.04c1.94,2.33,2.87,5.35,2.37,8.34,2.67,1.05,4.85,3.27,5.85,5.96s.66,5.83-.68,8.36v67.52l-32.47-.16Z"/>
      <path class="cls-1" d="M.03,283.09c10.07.55,20.18-5.67,24.22-14.92"/>
      <path class="cls-1" d="M79.54,283.09c-10.07.55-20.18-5.67-24.22-14.92"/>
      <polyline class="cls-1" points="103.09 210.21 87.76 226.02 87.76 331.02 112.21 334.53 153.06 334.53 173.24 331.02 173.24 226.49 157.67 209.54"/>
      <path class="cls-1" d="M87.76,225.74c9.68-2.16,18.53-7.86,24.49-15.79"/>
      <path class="cls-1" d="M148.69,209.49c1.78,6.23,7.18,10.77,12.88,13.85,5.7,3.08,11.95,5.1,17.45,8.51,9.42,5.84,16.03,15.38,20.61,25.47,10.01,22.09,11.21,47.81,4.52,71.12-6.69,23.31-21.02,44.17-39.57,59.81-9.34,7.87-18.67,15.75-28.01,23.62-4.18,3.53-8.42,7.11-11.55,11.59-3.14,4.48-5.11,10.05-4.2,15.44,1.22,7.21,7.43,12.81,14.33,15.23,14.77,5.18,31.47-2.32,42.22-13.7s17.08-26.09,24.45-39.9c7.37-13.81,16.62-27.59,30.63-34.58,4.12-2.06,8.78-3.48,13.32-2.69s8.83,4.28,9.37,8.86c.34,2.85-.75,5.66-2.03,8.23-5.81,11.7-15.87,21.04-27.51,26.98-11.63,5.94-24.77,8.62-37.84,8.86-10.78.2-21.71-1.27-31.65-5.46s-18.83-11.27-24.16-20.65"/>
      <polyline class="cls-1" points="91.59 332.65 104.38 345.44 156.01 345.44 170.17 331.55"/>
      <rect class="cls-1" x="102.41" y="345.44" width="55.75" height="5.46" rx="2.73" ry="2.73"/>
      <path class="cls-1" d="M107.43,350.62c-.22,5.42,2.53,10.62,6.31,14.52s8.51,6.7,13.18,9.45c-3.08,3.46-3.15,9.2-.16,12.73.88,1.04,2.05,1.92,3.4,2.11,2.32.33,4.48-1.45,5.55-3.53,1.88-3.64,1.2-8.43-1.61-11.4,2.68-1.73,5.36-3.57,8.05-5.3,3.11-2,6.27-4.05,8.57-6.94s3.65-6.8,2.56-10.34"/>
    </g>
  </g>
</svg>