<?xml version="1.0" encoding="UTF-8"?>
<svg xmlns="http://www.w3.org/2000/svg" xmlns:xlink="http://www.w3.org/1999/xlink" version="1.1" viewBox="0 0 1402 1122">
  <!-- Generator: Adobe Illustrator 30.6.0, SVG Export Plug-In . SVG Version: 2.1.4 Build 109)  -->
  <defs>
    <style>
      .st0 {
        fill: none;
        stroke: #efe1c5;
         stroke-width: 7; /* Increase thickness */
    stroke-linecap: round;
    stroke-linejoin: round;
    stroke-miterlimit: 20;
      }

      .st1 {
        display: none;
      }
    </style>
  </defs>
  <g id="Layer_1" class="st1">
    <g id="pTTeAI">
      <image id="pTTeAI1" data-name="pTTeAI" width="1402" height="1122" xlink:href="1 - WELCOME NEW-1.png"/>
    </g>
  </g>
  <g id="Layer_2">
    <path class="st0" d="M747.3,365.9c-20.2.3-40.5-3.6-59.3-11.2-2.8-1.2-5.7-2.4-8-4.4s-4-4.9-3.9-7.9c0-3.2,2.1-6.1,4.4-8.2s5.2-3.8,7.6-5.8c7.9-6.7,11.2-17.3,12.7-27.5s1.5-20.7,4.3-30.6c2.9-9.9,9.5-18.9,19.4-21.8-1.6-2.8-1.7-6.4-.3-9.4s4.4-5,7.6-5.4c-2.7-1.5-2.9-7.2,0-8.4-1.5.7-3.3-1.1-3-2.8s1.7-2.9,3.1-3.7,3.1-1.5,4.2-2.7c2.4-2.6,1.7-6.9-.3-9.9s-4.9-5.2-7-8c-4.4-5.7-5.2-14-1.9-20.5,2.2-4.4,6-7.8,8.8-11.9s4.5-9.6,2-13.9c-1-1.7-2.5-3-3.8-4.5s-2.1-3.6-1.5-5.5,3.8-2.7,5.1-1.2c-2.7-1.5-3-5.2-2.5-8.2,1-6.6,4.6-13,9.1-18,2.9,3.6,5.9,7.2,7.5,11.5s1.6,9.5-1.1,13.2c2.2.4,3.9,2.1,4.4,4.3s-.2,4.5-2,5.8c-2.8,2.1-3.9,6-3.4,9.5s2.3,6.6,4.3,9.6,4.2,5.7,5.7,8.9c3.4,7.3,2.5,16.4-2.3,22.8-1.8,2.4-4.1,4.5-5.6,7.1s-2,6.2-.1,8.6c.9,1.1,2.2,1.9,3.4,2.7s2.4,1.9,2.6,3.4-2.6,4.3-4.1,4.2c1.7-.2,2.9,1.9,2.8,3.7s-.8,3.5-.4,5.2c.3,1.5,1.4,2.7,2.5,3.7s2.2,2.2,2.6,3.7-.1,4.4-1.6,4.8c8.1,4.1,14.9,10.8,19.1,18.9s4.9,18,4.7,27.1-.3,11.9.9,17.8,3.6,11.6,8,15.6c4.7,4.4,11.5,6.6,15,12,4.1,6.3,2.5,14.8,5.2,21.8,1.9,4.8,5.6,8.6,9.8,11.5s8.9,5.1,13.3,7.6c2.8,1.6,5.9,3.9,5.9,7.1,0,1.7-.9,3.3-1.9,4.6-4,5.2-9.9,8.5-15.9,11.3-17.8,8.3-37.2,13.2-56.8,14.3s-8.5.3-12.7.4c-17.4.2-34.8-.3-51.9-3s-34-7.9-49-16.7-5.3-3.3-7.2-5.7-3-5.6-2.3-8.6c.7-2.8,3.1-5,5.4-6.7,6.8-5,15.4-8.3,19.3-15.7,2.9-5.5,2.8-12.7,7.1-17.2"/>
    <path class="st0" d="M658.8,370.6c15.8,10.7,34.2,17.2,53,20.3,18.8,3.1,38.1,3,57.1,1.4,18.6-1.5,38.3-5,52-17.6"/>
    <path class="st0" d="M724.2,248.2l15.5,2.7"/>
    <path class="st0" d="M653.3,395.7c11.6,16.7,18.2,36.8,18.6,57.1.4,20.3-5.4,40.7-16.3,57.8-9.5,14.9-22.7,27-34.7,39.9-12.1,12.9-23.5,27.2-28.2,44.3"/>
    <path class="st0" d="M651.2,514.3c-7.5,10.3-15.8,21.1-27.7,25.5-15.5,5.7-33.5-1.2-44.9-13.2-11.4-11.9-17.4-28-22-43.8-6.3-21.7-10.6-44-18.1-65.3s-18.9-42-36.5-56.1-41.8-10.2-60.7-1.8c-2.1.9-4.4,2.5-4.2,4.7.2,2.4,3.1,3.3,5.4,3.7,17.6,2.8,36.1.2,52.3-7.4"/>
    <path class="st0" d="M443.4,367.9c27.6,7.6,51.5,27.8,63.7,53.7,10.9,23.2,12.4,49.6,13.7,75.3s1.4,52,9.4,76.4c8,24.4,22.5,47.2,43.7,61.8,7,4.9,15.5,8.9,23.9,7.3,1.7-.3,3.4-.9,4.7-2.1s1.9-3.1,1.2-4.7c-.8-1.8-3.1-2.5-5-2.1s-3.5,1.8-4.8,3.3c-4.7,5.3-7.1,12.7-6.3,19.8"/>
    <path class="st0" d="M592,676.3c4.6,14.4,12.2,27.9,22.2,39.3-12.8-25.9-12.6-58-.3-84.1,3.3-7,7.6-13.7,13.7-18.4s14.3-7.3,21.7-5.3c-7.1-9.5-6.5-24,1.4-32.9s22.1-11.3,32.4-5.4c-4.8-5-3.1-13.3,1.4-18.6s11.1-8.1,17-11.8c16.9-10.6,28.8-29,31.5-48.8,1.7,22.7,15.7,44.5,35.7,55.3,7.1,3.8,15.4,6.8,19.7,13.6,4.2,6.5,3.4,15.9-1.9,21.6,9.8-7.6,26.1-5.1,33.9,4.6s6.2,25.5-3.3,33.4c8-1,16,2.8,21.3,8.9s8.3,13.9,10.1,21.8c4.9,22,1.3,45.8-10,65.3-6.6,11.5-14.9,23-24.9,31.7,25.9-8.5,42-32.8,52.3-58,11.6-28.3,17.2-60.9,5.8-89.3-5.8-14.5-15.7-26.9-25-39.4-9.4-12.5-18.6-25.6-22.7-40.6-4.2-15-2.4-32.6,8.2-44.1,9.5-10.3,24.2-14.1,34.6-23.4,9.6-8.6,14.8-21,22.3-31.4,13.3-18.4,41.6-21.8,62.9-13.8,7,2.6,13.6,6.7,18.2,12.6,5.2,6.7,7.5,15.2,8.3,23.7,1.6,17.1-2.3,34.3-8.8,50.2s-15.5,30.6-24.4,45.3c-14.9,24.5-29.9,49-44.8,73.5-8.9,14.5-12.5,32.5-9.7,49.4.7,4.2,1.8,8.3,4.2,11.8s6.3,6.1,10.5,6.1c2.5,0,5-1,7.2-2.1,3.2-1.6,6.3-3.8,8.4-6.7s3.2-6.7,2.2-10.2-4.2-6.4-7.8-6.4c-4.7,0-9.3,4.5-13.5,2.4-2.2-1.1-3.2-3.8-3.8-6.2-2.1-9.5-.3-19.5,2.8-28.8,7.1-21.5,20.7-40.3,35.3-57.6,14.6-17.3,30.5-33.7,43.4-52.3,12.9-18.6,22.9-40.1,23.8-62.7s-2.6-32.4-12.1-45.2c-9.5-12.7-23.6-21.8-39-25.9-15.3-4.1-31.8-3.4-47,1.1-11.2,3.4-21.7,8.7-32.8,12.3-11.1,3.6-23.4,5.3-34.3,1.3"/>
    <path class="st0" d="M876.4,389.1c2.6-.3,4.4,2.8,4,5.4s-2.4,4.5-4.2,6.4c-8.8,9.2-16.6,19.4-23.2,30.3s-5.6,6.2-9.2,8.4-7.9,3.4-12,2.8-8.1-3.4-9.4-7.4.5-9,4.4-10.6c.7-1.7-1.7-3.9-3.5-3.7s-3.3,1.5-4.6,2.9c-13.4,14.3-19,34.9-17.1,54.4,1.9,19.5,10.9,37.9,23.1,53.1"/>
    <path class="st0" d="M611.8,711.3c8.2,12.7,19.3,23.5,32.2,31.4,2.4,1.5,5,2.9,6.9,4.9s3.3,4.9,2.8,7.7c-6.3,1.5-12.1,4.6-16.7,9.2-.8.8-1.6,1.7-2,2.7-1.4,3.6,1.9,7.1,5,9.3,10.7,7.3,23.7,10.5,36.4,13,22.7,4.5,45.8,7.2,68.9,6.5s46.3-5.1,67.5-14.4c3.5-1.5,7.5-4.1,7.3-7.9-.2-3.1-3.2-5.3-6.2-6s-6.2-.5-9.2-1.2-6-2.9-6.3-6c-.3-3.7,3.4-6.3,6.6-8.1,5.6-3.2,11.2-6.3,16.7-9.5"/>
    <path class="st0" d="M652.7,755.6c42.5,15.2,89.5,17.9,133.4,7.5"/>
    <path class="st0" d="M711.4,621.4c-.9-5.6,3-10.8,7-14.8,4-4,8.6-8.1,9.7-13.6,1.9,5.4,6,9.4,9.8,13.6s7.2,10.1,5.3,15.5c9-3,19.4-4.1,28.8-2.4,1.9,9.7-.5,19.7-6.2,27.8,5.4-2.1,11.1,1.7,15.3,5.6s8,8.8,13.5,10.5c-4.1,4.3-8.7,7.8-13.6,11.1s-10.9,5.5-16.9,4.9c4.1,3.2,4.5,9.4,4.3,14.5s-1.3,10.4-.2,15.5c-10,1.6-20.3-1.7-28.1-8.1,2.1,5.7-1.6,11.9-5.6,16.6s-8.7,8.8-10.8,14.6c-7.5-8.8-11.9-20.2-14.2-31.5-3.8,4.1-9.3,4.9-14.9,5-5.6,0-11.5-.2-16.4,2.7-.1-5.6.4-11.4,1.5-16.9s3.5-11,7.8-14.7c-5.5,2-11.3-1.9-15.5-6s-8.4-8.9-14.1-10c8.9-7.3,19.6-12.8,30.3-16.9-7-8-1.4-21-8.5-28.9,10.4-1.2,22.2,1.4,31.5,6Z"/>
    <ellipse class="st0" cx="507.7" cy="663.7" rx="84.8" ry="20.7"/>
    <path class="st0" d="M422.3,665.4c-.1,3.5.6,6.5.6,10.1,0,11.4,38,20.7,84.8,20.7s84.8-9.3,84.8-20.7.5-7.9.5-11.6"/>
    <path class="st0" d="M425.5,680.6l22.6,193.7s12.9,20.1,59.6,20.1,58.5-19.2,58.5-19.2l24.9-196"/>
    <path class="st0" d="M430,730.1c5.1,4.4,8.8,10.5,10.2,17.1,4.1.4,7.6,2.6,9.7,6.1s2.5,8,.9,11.8c1.9,0,3.8,1.8,4.6,3.5s.9,3.6.9,5.5c1.1,25.3,3.6,62.4,4.7,87.7"/>
    <path class="st0" d="M456.5,777.6c-1-5,2.7-10.4,7.7-11.2-2.5-4-2-9.4.8-13.2s7.9-5.7,12.5-4.6c-2.8-2.4-1.8-7.5.6-10.3s5.8-4.4,8.8-6.5c7.4-5.1,12.3-13.6,13.1-22.5-.5,8.4,5.7,17.1,13,21.1,2.5,1.4,5.3,2.3,7.9,3.6s5,3.2,6.2,5.8.6,6.2-1.8,7.8c4.7-1.4,10.6,1.1,13.7,4.8s3.9,9.3,1.8,13.7c2.6,1.1,4.4,3.4,5.4,6.1s1.2,5.5,1.4,8.3c1.9,25.4,3.1,46.3,5.8,76.5"/>
    <path class="st0" d="M547.8,779c-1.3-6.1,2.7-12.8,8.7-14.5-1.6-4.5-.5-9.6,2.4-13.4s7.8-6,12.6-5.7c-2.1-2.3-1.2-6,.6-8.6s4.5-4.3,7-6.1,5-4,5.8-7"/>
    <path class="st0" d="M445.2,858.6c5.7,8.8,16.5,13.2,27,13.6,6.8.3,13.9-1,19.5-4.9,6.3-4.4,10-11.5,13.9-18.1,8.8-14.9,19.5-28.6,31.9-40.6"/>
    <path class="st0" d="M471.5,804.3c8,7.2,14.3,16.2,18.2,26.3,2.5,6.5,4,13.3,6.6,19.7s6.3,12.7,12.2,16.4c6,3.8,13.5,4.5,20.6,4.2,14.8-.5,30.5-5.1,39.9-16.6"/>
    <path class="st0" d="M493.7,843.5c-8.4,0-15.7-6.6-19.2-14.3s-3.8-16.4-4.2-24.8c8.6,1.3,16.4,6.5,20.9,13.9,4.5,7.4,5.2,17,2.5,25.2Z"/>
    <path class="st0" d="M508.1,844.2c-2.5-2-3.5-5.5-3.2-8.7s1.7-6.2,3.5-8.9c6.4-9.8,17.2-16.5,28.8-17.9-.9,8.6-2.2,17.3-7,24.6s-15.4,16.5-22.1,11Z"/>
    <path class="st0" d="M500.9,827.6c1.4-20.9,2.8-41.9,4.3-62.8"/>
    <path class="st0" d="M501.1,810.2c-3.6-.9-6.2-4-7.4-7.5s-1.1-7.3-.6-10.9c1.3-10.5,5.3-20.7,11.6-29.2,5.3,8.7,7.8,19.1,8.4,29.2.2,3.9,0,8-1.6,11.6s-6.6,7.8-10.4,6.8Z"/>
    <g>
      <ellipse class="st0" cx="364.7" cy="600.4" rx="84.8" ry="20.7"/>
      <path class="st0" d="M279.3,602.1c-.1,3.5.6,6.5.6,10.1,0,11.4,38,20.7,84.8,20.7s84.8-9.3,84.8-20.7.5-7.9.5-11.6"/>
      <line class="st0" x1="443.7" y1="650.2" x2="448.1" y2="616"/>
      <path class="st0" d="M282.5,617.3l22.6,193.7s12.9,20.1,59.6,20.1,58.5-19.2,58.5-19.2l9-71.1"/>
      <path class="st0" d="M287,666.8c5.1,4.4,8.8,10.5,10.2,17.1,4.1.4,7.6,2.6,9.7,6.1s2.5,8,.9,11.8c1.9,0,3.8,1.8,4.6,3.5s.9,3.6.9,5.5c1.1,25.3,3.6,62.4,4.7,87.7"/>
      <path class="st0" d="M313.5,714.3c-1-5,2.7-10.4,7.7-11.2-2.5-4-2-9.4.8-13.2s7.9-5.7,12.5-4.6c-2.8-2.4-1.8-7.5.6-10.3s5.8-4.4,8.8-6.5c7.4-5.1,12.3-13.6,13.1-22.5-.5,8.4,5.7,17.1,13,21.1,2.5,1.4,5.3,2.3,7.9,3.6s5,3.2,6.2,5.8.6,6.2-1.8,7.8c4.7-1.4,10.6,1.1,13.7,4.8s3.9,9.3,1.8,13.7c2.6,1.1,4.4,3.4,5.4,6.1s1.2,5.5,1.4,8.3c1.9,25.4,3.1,46.3,5.8,76.5"/>
      <path class="st0" d="M404.7,715.7c-1.3-6.1,2.7-12.8,8.7-14.5-1.6-4.5-.5-9.6,2.4-13.4s6-5.1,9.8-5.6"/>
      <path class="st0" d="M302.1,795.3c5.7,8.8,16.5,13.2,27,13.6,6.8.3,13.9-1,19.5-4.9,6.3-4.4,10-11.5,13.9-18.1,8.8-14.9,19.5-28.6,31.9-40.6"/>
      <path class="st0" d="M328.4,741c8,7.2,14.3,16.2,18.2,26.3,2.5,6.5,4,13.3,6.6,19.7s6.3,12.7,12.2,16.4c6,3.8,13.5,4.5,20.6,4.2,14.8-.5,30.5-5.1,39.9-16.6"/>
      <path class="st0" d="M350.7,780.2c-8.4,0-15.7-6.6-19.2-14.3s-3.8-16.4-4.2-24.8c8.6,1.3,16.4,6.5,20.9,13.9,4.5,7.4,5.2,17,2.5,25.2Z"/>
      <path class="st0" d="M365,780.9c-2.5-2-3.5-5.5-3.2-8.7s1.7-6.2,3.5-8.9c6.4-9.8,17.2-16.5,28.8-17.9-.9,8.6-2.2,17.3-7,24.6s-15.4,16.5-22.1,11Z"/>
      <path class="st0" d="M357.8,764.3c1.4-20.9,2.8-41.9,4.3-62.8"/>
      <path class="st0" d="M358.1,746.9c-3.6-.9-6.2-4-7.4-7.5s-1.1-7.3-.6-10.9c1.3-10.5,5.3-20.7,11.6-29.2,5.3,8.7,7.8,19.1,8.4,29.2.2,3.9,0,8-1.6,11.6s-6.6,7.8-10.4,6.8Z"/>
    </g>
    <path class="st0" d="M296,732.9c-43.5,18.6-89.7,42.5-76.9,77.4s142.9,95.4,309.2,95.4,278.6-26.2,298.5-74.6c6.9-16.8-5.8-32.1-25.2-45"/>
    <path class="st0" d="M216.9,804.3c1.2,32.2,40.5,66.8,91.5,83.2s115.5,35.2,220.4,36.9,176.4-8.8,224.5-24.6,75.4-49.6,75.4-75.9"/>
    <path class="st0" d="M896.7,849.9c-.5,3.8,2.7,7.1,6.1,9s7.2,3.1,9.9,5.8c3.1,3.2,4,8.2,2.4,12.3s-6.8,7.4-10.7,10.6c-5.6,4.7-11.9,9.7-19.3,9.9-2.9,0-5.4-2.5-5.9-5.3s.6-5.8,2.4-8,4.1-4,6.5-5.7c3.4-2.5,1.6-8.2-.5-11.9s-5-7.4-4.5-11.7c.3-2.7,2.2-5.2,4.7-6.2s6.8-.5,8.9,1.1Z"/>
    <path class="st0" d="M1039.9,877c0,.5,0,1.1,0,1.6.3,1.5,1.5,2.7,2.7,3.7,3.7,3.2,7.3,6.3,11,9.5,2.4,2.1,5,4.3,8.1,5.2s6.9.4,8.8-2.2c2.6-3.6.6-8.6-2-12.2-2.6-3.6-5.8-7.4-5.4-11.8.3-3.5,2.8-6.3,4.5-9.3s2.3-7.4-.5-9.6c-1.9-1.5-4.8-1.1-6.9.2-2.1,1.4-3.2,3.7-5.3,5.1s-5.1,2.5-7.3,4.6c-4.2,3.9-7.1,9.4-7.7,15.2Z"/>
    <path class="st0" d="M1067.6,852.3c17.8-20.3,36-50.9,33.6-83"/>
    <path class="st0" d="M915.7,874.4c4.6,2.4,9.5,4.6,14.8,6.4,47.5,16.9,86.1,6.6,109.6-6.2"/>
    <path class="st0" d="M852.9,769.4c-.4,13.4,5.6,51.7,32.3,81.3"/>
    <path class="st0" d="M996,859.5c-1.3,7-4.7,13.6-9.8,18.7-4.8-5.3-7.6-11.8-8.7-18.9-7.9-4.3-15.7-8.8-23.7-13.1,6.7-4.4,14.7-7.7,22.6-9.1-.6-4.6,1.2-9,3.4-13.1s4.8-7.9,6.7-12.1c4.4,6.7,6.7,14.2,8.4,22,8.7,1.6,17.4,6,23.8,12.2-5.6,6.4-14.5,9.5-22.7,13.4Z"/>
    <path class="st0" d="M1003.4,848.4c4.1,5.9,6.3,13,6.3,20.1-7.2-.3-13.7-3-19.6-7.2-8.7,2.6-17.3,4.9-26,7.5,1.7-7.9,5-15.9,9.5-22.4-3.7-2.8-5.5-7.3-6.9-11.7s-2.2-9-3.8-13.3c7.8,1.6,14.8,5.3,21.5,9.7,7.3-5.1,16.6-8.1,25.4-8.2.5,8.4-3.5,17-6.6,25.5Z"/>
    <path class="st0" d="M911,717.8c-19.9,10.9-64.1,22.5-65.5,31.2s-3.6,23,55.2,37.4c25.7,6.3,51,9.3,74.8,9.7"/>
    <path class="st0" d="M975.3,767c-21.4,0-43.1-2.6-62.5-11.7-6.2-2.9-12.7-7-14.2-13.7-.9-4,.2-8.3,2.3-11.9s5-6.6,7.8-9.6c10.3-10.6,20.6-21.2,30.9-31.8,6.1-6.3,13.1-13.1,21.9-13.5-1.6-.7-1.7-4.3-.7-5.7s2.7-2.3,4-3.5,2.3-3.2,1.4-4.7c-3.9,0-7.3-3.7-8.6-7.4s-.9-7.7.4-11.3,3.5-6.9,5.6-10.1c3.9-5.9,7.8-11.7,11.8-17.6"/>
    <path class="st0" d="M1039.3,717.8c19.9,10.9,64.1,22.5,65.5,31.2s3.6,23-55.2,37.4c-25.7,6.3-51,9.3-74.8,9.7"/>
    <path class="st0" d="M975,767c21.5,0,43.1-2.6,62.5-11.7,6.2-2.9,12.7-7,14.2-13.7.9-4-.2-8.3-2.3-11.9s-5-6.6-7.8-9.6c-10.3-10.6-20.6-21.2-30.9-31.8-6.1-6.3-13.1-13.1-21.9-13.5,1.6-.7,1.7-4.3.7-5.7s-2.7-2.3-4-3.5-2.3-3.2-1.4-4.7c3.9,0,7.3-3.7,8.6-7.4s.9-7.7-.4-11.3-3.5-6.9-5.6-10.1c-3.9-5.9-7.8-11.7-11.8-17.6"/>
    <path class="st0" d="M960.3,674.4c9,4.7,20.2,4.6,29.1-.3"/>
    <path class="st0" d="M964.6,660.5c3.9,1.1,8.1,1.2,12.1.4"/>
  </g>
</svg>