<?xml version="1.0" encoding="UTF-8"?>
<svg id="Layer_2" data-name="Layer 2" xmlns="http://www.w3.org/2000/svg" viewBox="0 0 324.57 393.87">
  <defs>
    <style>
      .cls-1 {
        fill: none;
        stroke: #f0e2c6;
        stroke-miterlimit: 10;
      }
    </style>
  </defs>
  <g id="Layer_1" data-name="Layer 1">
    <g>
      <path class="cls-1" d="M45.49,48.49c5.23-2.62,7.47-9.67,5.18-15.05s-8.44-8.64-14.26-8.09-10.8,4.67-13.37,9.92c-5.43.96-10.38,4.41-13.14,9.2,4.81-1.65,9.95-2.29,15.02-1.88,2.38,5.12,7.58,7.43,13.14,6.45,4.66,6.86,4.04,16.12.71,23.73s-8.87,13.97-13.77,20.67-9.33,14.21-9.83,22.49c-.87,14.44,5.31,28.11,13.79,39.83s20.38,20.94,33.85,26.23c-12.28-9.2-21.79-21.86-27.05-36.27"/>
      <path class="cls-1" d="M50.94,37.57c6.82,8,9.16,19.07,8.56,29.57s-3.85,20.64-7.07,30.65c10.85,2.22,22.28,0,32.94,3.01,10.89,3.08,19.81,11.25,25.83,20.83s9.46,20.54,12.35,31.48c1.8,6.82,3.62,14.05,8.61,19.03,4.62,4.6,11.22,6.52,17.6,7.86,6.38,1.35,13.01,2.36,18.61,5.69,5.87,3.5,10.1,9.3,12.81,15.57s4.03,13.05,5.18,19.78c-9.13,5.54-21.74,5.75-31.46,1.33-9.72-4.42-17.01-13.84-18.84-24.37"/>
      <path class="cls-1" d="M166.53,233.49c-.71-.54-.25-1.67.64-1.56,5.6.71,11.34.26,16.99-.25,6.8-.62,13.69-1.32,20.43-.2s13.44,4.31,17.25,9.98c5.27,7.84,4.22,18.97,9.95,26.33.36.46.16,1.13-.38,1.34-5.52,2.13-11.17,4.03-17.04,4.78-6.27.81-12.99-.06-18.17-3.69-8.02-5.62-10.55-16.19-16.12-24.24-3.38-4.88-8.66-8.77-13.55-12.49Z"/>
      <path class="cls-1" d="M114.32,186.08c-.68,12.18-6.32,23.44-10.87,34.76-4.55,11.32-8.12,23.93-4.55,35.6,2,6.54,6.14,12.27,11.02,17.07s10.51,8.75,16.12,12.68c3.16-9.38,10.37-16.89,12.28-26.6,1.9-9.66-2.41-19.44-7.54-27.84s-11.29-16.47-13.7-26.02c-1.59-6.31-2.93-13.14-2.77-19.64Z"/>
      <path class="cls-1" d="M129.19,294.5c.29-.31,0-.79-.41-.68-12.63,3.29-26.86-2.82-39.17,1.83-10.59,3.99-16.79,14.74-22.14,24.72,4.89,2.9,10.14,5.22,15.44,7.29s11.06,3.25,16.7,2.55c8.52-1.06,16.34-6.65,20.09-14.36,1.72-3.54,2.61-7.41,3.94-11.11,1.14-3.17,3.05-7.55,5.55-10.23Z"/>
      <path class="cls-1" d="M127.71,190.85c-2,10.21,1.52,20.89,7.36,29.51s13.84,15.5,21.8,22.2,16.07,13.42,22.22,21.81c6.15,8.39,10.24,18.79,9.01,29.12"/>
      <path class="cls-1" d="M138.68,227.13c8.07,7.16,11.26,18.49,11.54,29.27s-1.95,21.47-2.84,32.22-.32,22.11,5.05,31.47c6.68,11.66,19.46,18.18,31.53,24.07-.01-8.65,2.3-17.69,7.24-24.79"/>
      <path class="cls-1" d="M225.33,350.15c8.75-7.5,13.11-19.45,12.51-30.96s-5.82-22.51-13.4-31.2c-2.35-2.69-4.99-5.23-8.21-6.76s-7.13-1.95-10.35-.42c-4.33,2.07-6.43,7.02-7.62,11.67-3,11.73-2.49,24.44,2.06,35.66,2.45,6.05,6.02,11.59,8.6,17.59,2.41,5.62,3.94,11.93,2.63,17.86-.06.28.3.45.48.22l5.64-7.03"/>
      <path class="cls-1" d="M220.62,283.88c13.62,9.63,29.2,16.3,45.33,20.56,10.28,2.72,21.09,4.47,31.53,2.45s20.5-8.39,24.67-18.18c2.5-5.88,2.68-12.85-.14-18.58s-8.78-9.97-15.16-10.12-12.8,4.14-14.53,10.28,1.87,13.49,7.98,15.36"/>
      <path class="cls-1" d="M99.16,389.46c11.02,2.65,22.47,5.31,33.58,3.06,8.52-1.72,16.41-6.39,22.03-13.02s8.93-15.18,9.24-23.87c.19-5.47-.88-11.2-4.22-15.54-4.84-6.28-13.82-8.45-21.49-6.47-7.67,1.98-14.06,7.51-18.56,14.03s-7.34,14.02-10,21.49-5.21,15.03-10.58,20.3Z"/>
      <path class="cls-1" d="M80.82,192.37c7.04,8.21,6.26,21.14.5,30.29s-15.47,15.09-25.42,19.33c-9.95,4.24-20.47,7.1-30.16,11.9s-18.79,11.96-22.9,21.96c-5.34,13-1.03,28.46,7.76,39.42s21.42,18.13,34.18,24.01c14.06,6.47,29.75,11.76,44.8,8.19,1.96-.47,3.97-1.13,5.37-2.58s1.96-3.88.77-5.5c-1.09-1.47-3.14-1.78-4.97-1.88-21.9-1.16-43.83,12.52-52.42,32.69,1.07-.89,2.85-1.59,4.18-1.16s2.48,1.25,3.63,2.03c7.24,4.86,15.71,8.01,24.41,8.44s17.63-1.98,24.59-7.22c8.69-6.55,13.7-16.79,17.92-26.82,4.23-10.03,8.15-20.51,15.52-28.53"/>
      <path class="cls-1" d="M42.27,138.94c-2.7-5.42-1.27-12.37,2.76-16.9s10.27-6.72,16.33-6.64,11.94,2.26,17.15,5.35c7.71,4.57,14.18,11.2,18.56,19.02,7.32,13.06,8.86,29.18,18.22,40.87-18.81-1.86-38.72-10.07-53.59-21.75-3.83-3.01-7.51-6.38-9.91-10.61s-3.4-9.49-1.69-14.05,6.53-8.06,11.34-7.34"/>
      <path class="cls-1" d="M32,35.4c-.33.7-.14,1.59.39,2.16s1.35.82,2.13.75c1.03-.1,2.09-1.01,1.86-2.03-.36-1.59-3.56-2.6-4.38-.88Z"/>
      <path class="cls-1" d="M33.8,26.4c-1.97-5.46-5.66-10.28-10.42-13.6,1.26-1.24.72-3.84-.94-4.44s-3.68.99-3.49,2.74,2.49,2.88,3.99,1.96"/>
      <path class="cls-1" d="M36.76,24.98c1.24-6.37,1.66-12.9,1.25-19.38,1.68.1,2.75-1.9,2.18-3.49s-2.91-2.15-4.14-1.01-.84,3.52.69,4.21"/>
      <path class="cls-1" d="M44.8,28.04c3.45-3.69,5.99-8.22,7.35-13.08-1.25-.9-1.65-2.6-.68-3.8s3-1.33,4.1-.25.97,3.14-.26,4.07-3.27.44-3.93-.95"/>
      <path class="cls-1" d="M125.95,250.1c-1.64-3.11-5.49-4.87-8.91-4.08s-6.1,4.07-6.2,7.58c-.21-2.37-.78-5.47-.39-7.82s1.44-4.67,3.33-6.11c2.31-1.76,5.64-1.91,8.27-.67s4.56,3.73,5.47,6.49.87,5.77.27,8.62c-.56,2.62-1.64,5.22-3.58,7.06s-4.87,2.79-7.4,1.9c-2.96-1.05-4.65-4.27-5.05-7.39"/>
      <path class="cls-1" d="M151.91,204.51c-.91-2.86.85-6.07,3.43-7.61s5.75-1.71,8.74-1.4c-2.54-1.89-5.22-3.89-8.37-4.19s-6.61,1.02-8.1,3.81c-1.19,2.23-.94,4.99-.06,7.37,1.18,3.19,3.46,5.95,6.37,7.72s6.41,2.53,9.78,2.13c1.98-.24,4.01-.93,5.33-2.44,1.63-1.87,1.84-4.67,1.1-7.04s-2.3-4.39-3.92-6.27"/>
      <path class="cls-1" d="M159.1,195.14c1.73.87,2.66,3.06,2.08,4.91s-2.59,3.12-4.5,2.86-3.51-2.04-3.56-3.97"/>
      <path class="cls-1" d="M207.33,246.45c-2.95.8-5.48,3.02-6.66,5.84s-.98,6.18.53,8.84c-1.94-1.76-4.11-3.64-5.38-5.92s-1.76-5.18-.6-7.52c.94-1.89,2.82-3.18,4.82-3.88,4.38-1.53,9.41-.48,13.23,2.15,2.84,1.96,5.15,4.88,5.75,8.27s-.82,7.23-3.83,8.92c-1.82,1.02-4.02,1.2-6.07.84s-3.98-1.21-5.84-2.16"/>
      <path class="cls-1" d="M199.77,255.3c1.1,1.43,3.24,1.93,4.86,1.12s2.51-2.82,2.03-4.55-2.28-3-4.08-2.87"/>
      <path class="cls-1" d="M162.57,297.18c1.8-3.39,6.16-4.84,9.94-4.13s6.99,3.2,9.59,6.03c-.93-2.57-1.92-5.24-3.44-7.51s-3.71-4.21-6.36-4.87c-4.14-1.03-8.67,1.43-10.71,5.18s-1.83,8.44-.19,12.38,4.58,7.21,7.83,9.98c1.12.96,2.43,1.91,3.9,1.84,1.49-.07,2.71-1.18,3.66-2.32,2.61-3.12,4.25-7.04,4.66-11.08"/>
      <path class="cls-1" d="M211.33,312.07c2.52-2.18,6.07-3.1,9.33-2.42s6.15,2.95,7.58,5.95c-.14-4.07-1.82-8.5-5.37-10.51s-8.37-1.69-11.39,1.05c-2.62,2.38-3.61,6.18-3.26,9.71s1.89,6.82,3.66,9.88c1.33,2.29,2.98,4.64,5.48,5.51,3.1,1.08,6.68-.57,8.65-3.2s2.62-6.02,2.81-9.31"/>
      <path class="cls-1" d="M136.89,356.48c3.57.6,6.85,2.75,8.84,5.77s2.65,6.89,1.78,10.4c2.93-2.98,4.81-7.11,4.89-11.29s-2.23-8.52-6.11-10.11c-1.61-.66-3.4-.83-5.14-.73-3.91.23-7.71,1.84-10.62,4.46s-4.91,6.22-5.62,10.07c-.47,2.56-.35,5.36,1.02,7.57,1.66,2.68,4.93,4.07,8.09,4.11s6.21-1.09,9.03-2.52"/>
      <path class="cls-1" d="M60.1,361.06c1.76,2.98,4.86,5.05,8.22,5.87s6.95.44,10.2-.75c2.58-.94,5.04-2.45,6.62-4.69s2.15-5.32.98-7.81"/>
      <path class="cls-1" d="M73.64,351.35c2.65.99,4.9,3,6.19,5.51s1.61,5.51.87,8.24"/>
      <path class="cls-1" d="M98.52,305.96c3.6,2.97,4.96,8.36,3.2,12.69,1.96-1.09,3.95-2.41,5.21-4.28s1.92-4.19,1.51-6.4c-.54-2.94-2.97-5.35-5.83-6.22s-6.05-.3-8.64,1.19-4.63,3.82-6.11,6.42c-1.26,2.2-2.15,4.87-1.29,7.26.75,2.08,2.76,3.54,4.91,4.05s4.43.18,6.54-.49"/>
      <path class="cls-1" d="M102.74,314.71c-1.06.69-2.55.62-3.54-.16s-1.39-2.22-.96-3.41,1.67-2.03,2.93-1.99"/>
    </g>
  </g>
</svg>