<?xml version="1.0" encoding="UTF-8"?>
<svg id="Layer_2" data-name="Layer 2" xmlns="http://www.w3.org/2000/svg" viewBox="0 0 298.49 298.49">
  <defs>
    <style>
      .cls-1 {
        fill: none;
        stroke: #f0e2c6;
        stroke-miterlimit: 10;
      }
    </style>
  </defs>
  <g id="Layer_1" data-name="Layer 1">
    <g>
      <polygon class="cls-1" points="133.59 212.19 130.02 196.08 116.1 204.94 93.55 205.2 93.81 182.65 102.67 168.73 86.56 165.16 70.43 149.39 86.56 133.63 102.67 130.05 93.81 116.14 93.55 93.59 116.1 93.84 130.02 102.71 133.59 86.6 149.36 70.47 165.12 86.6 168.69 102.71 182.61 93.84 205.16 93.59 204.91 116.14 196.04 130.05 212.15 133.63 228.28 149.39 212.15 165.16 196.04 168.73 204.91 182.65 205.16 205.2 182.61 204.94 168.69 196.08 165.12 212.19 149.36 228.32 133.59 212.19"/>
      <polygon class="cls-1" points="114.76 232.92 54.16 244.59 65.83 183.99 14.73 149.39 65.83 114.8 54.16 54.2 114.76 65.87 149.36 14.77 183.95 65.87 244.55 54.2 232.88 114.8 283.98 149.39 232.88 183.99 244.55 244.59 183.95 232.92 149.36 284.02 114.76 232.92"/>
      <polygon class="cls-1" points="122.39 214.5 75.15 223.6 84.25 176.36 44.41 149.39 84.25 122.43 75.15 75.19 122.39 84.29 149.36 44.45 176.32 84.29 223.56 75.19 214.46 122.43 254.3 149.39 214.46 176.36 223.56 223.6 176.32 214.5 149.36 254.33 122.39 214.5"/>
      <polygon class="cls-1" points="177.63 161.1 194.92 149.39 177.63 137.68 181.58 117.17 161.07 121.12 149.36 103.83 137.65 121.12 117.13 117.17 121.09 137.68 103.79 149.39 121.09 161.1 117.13 181.61 137.65 177.66 149.36 194.96 161.07 177.66 181.58 181.61 177.63 161.1"/>
      <g>
        <circle class="cls-1" cx="149.36" cy="4.23" r="3.73"/>
        <circle class="cls-1" cx="251.87" cy="46.79" r="3.73"/>
        <circle class="cls-1" cx="294.25" cy="149.36" r="3.73"/>
        <circle class="cls-1" cx="251.7" cy="251.87" r="3.73"/>
        <circle class="cls-1" cx="149.13" cy="294.25" r="3.73"/>
        <circle class="cls-1" cx="46.62" cy="251.7" r="3.73"/>
        <circle class="cls-1" cx="4.23" cy="149.13" r="3.73"/>
        <circle class="cls-1" cx="46.79" cy="46.62" r="3.73"/>
      </g>
    </g>
  </g>
</svg>